<?xml version="1.0" standalone="no"?>
<!DOCTYPE svg PUBLIC "-//W3C//DTD SVG 20010904//EN"
 "http://www.w3.org/TR/2001/REC-SVG-20010904/DTD/svg10.dtd">
<svg version="1.0" xmlns="http://www.w3.org/2000/svg"
 width="1000.000000pt" height="1000.000000pt" viewBox="0 0 1000.000000 1000.000000"
 preserveAspectRatio="xMidYMid meet">
<metadata>
Created by potrace 1.14, written by Peter Selinger 2001-2017
</metadata>
<g transform="translate(0.000000,1000.000000) scale(0.100000,-0.100000)"
fill="#000000" stroke="none">
<path d="M4415 9598 c-15 -4 -35 -13 -44 -21 -9 -8 -36 -18 -60 -21 -30 -4
-55 -16 -81 -40 -21 -19 -51 -37 -68 -40 -20 -5 -35 -18 -48 -42 -10 -19 -35
-45 -55 -58 -20 -13 -43 -40 -53 -60 -9 -19 -21 -38 -27 -42 -28 -17 -49 -90
-49 -175 l0 -85 74 -150 c67 -133 80 -154 130 -194 30 -25 65 -64 77 -86 12
-23 38 -49 56 -59 18 -10 42 -32 53 -49 27 -45 70 -83 112 -100 20 -9 42 -21
50 -28 68 -66 181 -158 194 -158 19 0 97 -56 133 -94 14 -15 35 -26 50 -26 14
0 51 -18 82 -40 32 -22 61 -40 66 -40 4 0 17 -8 28 -16 19 -15 19 -15 -5 -10
-14 3 -42 8 -64 11 -21 3 -54 13 -73 22 -28 13 -41 14 -71 5 -43 -13 -102 -4
-152 23 -22 13 -50 18 -78 16 -29 -1 -53 4 -75 18 -28 17 -37 18 -74 8 -37
-10 -51 -8 -105 12 -35 13 -89 25 -120 26 -31 1 -86 8 -123 15 -36 7 -83 10
-104 6 -20 -3 -53 -1 -72 4 -56 17 -132 20 -167 8 -29 -11 -38 -9 -76 11 -39
22 -50 23 -117 17 -128 -13 -182 -14 -247 -3 -54 8 -67 7 -97 -8 -32 -18 -35
-18 -74 -1 -39 18 -40 18 -76 -4 -35 -22 -38 -22 -71 -7 -35 17 -46 15 -102
-17 -15 -9 -35 -11 -56 -6 -23 5 -48 2 -79 -10 -25 -10 -48 -15 -51 -12 -13
12 -76 1 -158 -28 -49 -16 -95 -30 -103 -30 -8 0 -29 -13 -47 -29 -19 -16 -81
-53 -138 -83 l-105 -54 -37 -74 c-23 -45 -47 -79 -62 -87 -32 -17 -45 -41 -39
-73 3 -16 -4 -38 -20 -60 -13 -20 -29 -58 -36 -85 -11 -44 -10 -51 7 -75 11
-14 22 -43 25 -63 5 -40 63 -161 85 -179 8 -7 26 -14 41 -16 30 -4 89 -40 133
-83 34 -32 39 -33 85 -20 18 5 35 6 38 1 13 -21 113 -54 160 -52 26 1 174 -33
245 -58 74 -25 120 -31 156 -21 21 6 39 3 68 -11 37 -19 40 -19 77 -2 33 14
45 15 77 5 20 -6 84 -14 142 -16 58 -2 123 -7 145 -9 131 -16 229 -16 252 -1
20 13 42 15 126 9 56 -3 122 -6 147 -5 249 8 247 8 277 29 16 12 38 19 49 17
65 -14 141 -12 175 6 20 10 39 16 41 14 13 -13 226 -11 263 2 22 8 56 15 75
17 19 2 40 4 46 5 6 0 21 10 34 21 13 11 32 20 44 21 12 0 30 2 41 5 11 2 39
-1 63 -7 39 -11 45 -10 80 14 70 49 133 71 197 70 54 -1 67 3 130 41 39 23 73
43 78 43 4 1 24 4 45 7 20 4 51 2 68 -3 22 -6 36 -5 44 2 10 9 12 9 8 -1 -2
-8 -28 -27 -58 -44 -30 -16 -59 -36 -63 -44 -4 -8 -32 -25 -62 -40 -34 -16
-59 -35 -67 -52 -10 -21 -19 -26 -40 -24 -35 4 -64 -12 -115 -63 -26 -27 -58
-47 -88 -56 -32 -9 -50 -22 -58 -39 -9 -18 -22 -26 -45 -28 -24 -2 -36 -11
-47 -32 -13 -25 -20 -29 -43 -24 -23 5 -32 1 -46 -21 -14 -22 -22 -25 -51 -21
-22 4 -37 1 -45 -9 -7 -9 -27 -15 -44 -14 -17 1 -51 -6 -76 -16 -25 -9 -58
-19 -74 -21 -17 -2 -39 -13 -50 -23 -27 -24 -59 -34 -116 -36 -33 -2 -58 -11
-92 -35 -42 -29 -51 -32 -73 -22 -21 10 -28 8 -45 -10 -16 -17 -30 -21 -65
-19 -50 2 -85 -12 -85 -34 0 -8 -6 -15 -13 -15 -33 0 -124 34 -147 55 -14 13
-41 26 -60 30 -19 3 -73 19 -120 35 -47 16 -103 29 -125 29 -58 0 -98 8 -203
42 -51 16 -121 34 -155 39 -34 5 -95 18 -134 29 -70 19 -124 30 -188 36 -16 2
-42 8 -57 14 -14 5 -62 8 -106 6 -61 -3 -93 0 -133 15 -30 10 -60 15 -69 11
-20 -10 -60 -7 -86 7 -12 6 -34 8 -50 4 -27 -6 -54 -6 -199 -2 -96 4 -246 -9
-295 -24 -25 -8 -71 -17 -102 -21 -33 -4 -81 -18 -110 -34 -33 -17 -64 -27
-80 -24 -30 4 -106 -31 -149 -69 -15 -13 -46 -39 -70 -58 -97 -79 -129 -113
-140 -151 -7 -21 -25 -50 -40 -65 -23 -22 -29 -37 -29 -69 0 -28 -8 -52 -24
-73 -21 -29 -23 -38 -14 -74 6 -29 5 -50 -3 -70 -7 -18 -9 -48 -5 -81 4 -29 8
-68 10 -88 1 -20 14 -56 28 -80 30 -51 130 -149 151 -149 8 0 66 -23 128 -51
108 -48 119 -51 204 -53 65 -1 97 -6 115 -18 29 -20 30 -20 70 -8 18 5 43 5
63 -1 61 -18 125 -21 164 -8 33 11 189 14 249 5 10 -2 30 1 44 7 36 14 110 25
115 17 2 -4 -13 -17 -35 -29 -21 -12 -41 -30 -45 -40 -3 -10 -19 -30 -35 -45
-17 -15 -30 -36 -30 -49 0 -26 -54 -72 -75 -63 -14 5 -40 -19 -40 -38 -1 -40
-61 -102 -107 -111 -25 -5 -20 0 -51 -60 -31 -62 -58 -88 -89 -84 -37 5 -124
-55 -131 -90 -5 -21 -13 -30 -35 -34 -52 -11 -132 -50 -138 -69 -7 -23 -66
-68 -89 -68 -29 0 -121 -58 -132 -83 -7 -15 -23 -27 -43 -30 -38 -8 -111 -57
-133 -90 -29 -45 -83 -70 -153 -72 -49 -1 -69 -6 -86 -22 -34 -31 -62 -43 -86
-36 -13 3 -33 -2 -48 -12 -14 -9 -43 -18 -64 -19 -36 -3 -146 -52 -180 -81
-29 -24 -79 -45 -95 -39 -19 8 -82 -34 -89 -59 -2 -9 -18 -22 -36 -28 -22 -8
-33 -19 -37 -39 -3 -15 -16 -34 -29 -41 -28 -15 -20 -28 22 -36 56 -11 110 -5
169 17 33 12 76 25 95 28 19 2 46 13 60 23 14 11 44 20 70 20 25 1 58 8 73 16
17 9 40 12 57 8 20 -4 37 -1 57 13 15 11 57 27 93 36 36 10 80 25 99 34 19 10
37 17 40 18 3 0 25 6 49 14 32 10 48 11 67 2 21 -10 26 -9 36 11 17 31 35 43
111 72 36 14 69 33 72 41 3 7 17 14 31 14 35 0 90 24 106 47 16 22 73 48 87
39 11 -6 78 38 90 60 5 9 22 18 37 19 15 2 37 13 49 24 12 11 42 29 67 40 26
12 52 28 59 36 7 8 28 23 46 31 19 9 34 21 34 26 0 23 54 78 76 78 14 0 29 10
39 28 9 15 31 38 48 50 49 34 101 83 132 125 15 20 32 37 37 37 12 0 135 105
161 138 11 13 26 21 36 18 23 -8 44 8 47 36 1 12 3 26 3 31 1 4 12 7 25 7 17
0 35 15 63 53 22 28 43 60 46 70 4 9 15 20 24 24 34 12 164 126 159 139 -10
25 28 54 83 64 30 6 65 17 78 25 12 9 44 18 69 22 31 4 58 16 79 35 18 15 44
28 57 28 14 0 40 10 59 23 68 46 130 76 145 70 17 -6 121 24 144 43 8 7 31 14
50 17 50 7 121 35 145 56 26 24 59 41 80 41 9 0 30 9 47 21 16 12 32 19 35 15
3 -3 -4 -58 -16 -123 -12 -65 -23 -127 -25 -138 -2 -11 -7 -38 -11 -60 -4 -22
-9 -48 -11 -58 -2 -10 -5 -26 -8 -35 -3 -9 -7 -33 -10 -52 -3 -19 -17 -91 -31
-160 -14 -69 -28 -138 -31 -155 -7 -41 -96 -469 -134 -645 -17 -80 -34 -156
-36 -170 -3 -14 -7 -33 -10 -42 -3 -10 -8 -30 -10 -45 -3 -16 -18 -84 -35
-152 -16 -68 -31 -133 -33 -145 -18 -95 -158 -611 -169 -622 -3 -3 -14 -1 -24
4 -10 5 -25 8 -33 7 -8 -1 -55 -5 -104 -8 -49 -4 -94 -11 -100 -15 -18 -15
-108 -42 -137 -42 -15 0 -55 -16 -88 -35 -34 -19 -64 -34 -66 -35 -3 0 -11 0
-19 0 -8 0 -27 -11 -43 -24 -15 -13 -45 -26 -65 -30 -25 -4 -44 -16 -57 -35
-13 -18 -33 -31 -54 -35 -37 -7 -69 -37 -118 -112 -29 -44 -69 -96 -134 -176
-32 -39 -64 -96 -80 -145 -12 -32 -27 -56 -42 -64 -14 -8 -27 -28 -34 -53 -5
-23 -16 -54 -23 -71 -26 -57 -43 -150 -33 -180 7 -21 6 -37 -5 -59 -22 -44
-18 -240 6 -321 10 -33 20 -82 23 -110 3 -27 14 -60 24 -74 10 -13 19 -35 19
-49 0 -35 36 -107 80 -162 20 -25 41 -57 47 -72 26 -59 66 -110 112 -143 27
-20 52 -46 55 -60 4 -16 19 -30 39 -39 19 -7 49 -27 68 -43 19 -16 58 -42 87
-58 28 -15 52 -32 52 -36 0 -15 123 -81 192 -103 16 -5 16 -9 6 -33 -18 -41
-66 -113 -102 -151 l-31 -33 25 -20 c19 -14 34 -18 60 -13 64 11 152 45 207
80 52 33 133 109 133 125 0 14 35 16 61 3 15 -8 36 -11 48 -9 11 2 23 0 26 -5
5 -9 19 -8 48 5 10 4 39 5 65 1 34 -4 53 -2 69 9 20 14 23 12 57 -25 37 -41
96 -148 96 -174 0 -8 4 -17 9 -20 14 -9 42 128 43 205 l1 66 43 24 c24 13 44
27 44 31 0 10 106 58 126 58 7 0 29 14 47 30 19 17 42 30 51 30 13 0 52 32
124 102 45 44 87 99 103 135 12 28 26 44 42 48 24 7 59 62 72 117 4 14 15 34
26 44 10 9 19 25 19 34 0 23 27 87 40 95 22 13 38 103 44 240 2 55 7 111 10
124 3 14 1 42 -6 63 -9 30 -8 42 4 60 16 26 16 22 -2 106 -7 35 -22 74 -32 88
-14 17 -21 45 -24 85 -2 33 -13 76 -23 97 -11 20 -27 59 -37 86 -9 27 -25 56
-36 65 -50 42 -80 77 -107 124 -47 81 -176 231 -192 221 -17 -10 -49 7 -64 36
-17 33 -72 70 -104 70 -12 0 -37 11 -54 24 -18 13 -43 23 -57 22 -31 -2 -100
21 -120 40 -21 18 -96 44 -106 36 -9 -9 -2 31 29 178 14 63 28 131 31 151 3
20 8 42 10 50 3 8 8 32 11 54 3 22 12 67 19 100 8 33 17 76 20 95 3 19 25 136
50 260 24 124 47 241 50 260 16 100 13 101 105 -28 90 -124 459 -630 473 -647
5 -5 23 -30 42 -55 100 -135 304 -408 318 -425 9 -11 45 -56 80 -100 36 -44
81 -89 101 -101 l37 -20 -50 -38 c-28 -21 -50 -41 -50 -45 0 -4 -23 -34 -51
-66 -65 -77 -89 -124 -88 -172 1 -24 -8 -55 -24 -83 -14 -25 -31 -67 -38 -95
-7 -27 -21 -70 -32 -95 -23 -51 -24 -54 -13 -97 4 -18 3 -40 -3 -51 -12 -22
-17 -153 -8 -202 4 -19 8 -58 10 -86 3 -28 9 -60 16 -72 6 -11 11 -29 11 -40
0 -10 10 -27 21 -38 24 -21 62 -101 54 -114 -3 -4 2 -26 10 -49 8 -23 12 -41
9 -41 -4 0 8 -16 25 -35 17 -20 31 -47 31 -60 0 -16 12 -33 35 -51 20 -15 35
-35 35 -47 0 -27 118 -140 178 -172 26 -13 70 -46 99 -74 29 -28 59 -51 67
-51 9 0 29 -14 46 -30 17 -17 39 -30 50 -30 10 0 34 -9 52 -20 19 -11 43 -21
53 -23 46 -9 116 -30 120 -36 2 -4 7 -30 10 -57 13 -100 65 -244 71 -196 3 29
21 78 51 140 38 77 65 95 123 84 14 -2 34 -4 45 -4 11 1 72 3 135 5 l115 4 40
-32 c61 -50 153 -91 220 -100 103 -14 109 -14 136 5 l27 20 -67 68 c-36 37
-75 85 -85 105 l-19 37 32 30 c33 32 67 49 116 57 16 3 46 18 66 34 20 16 41
29 47 29 5 0 29 23 53 52 24 28 69 78 99 110 56 60 90 112 90 136 0 8 21 37
46 65 54 60 67 88 65 140 -1 38 18 87 47 120 9 10 17 30 19 45 4 50 12 97 25
145 8 33 9 54 2 65 -17 28 -17 92 0 127 14 29 14 37 1 74 -8 23 -12 54 -9 69
3 15 -4 51 -16 82 -12 30 -23 72 -24 93 -1 34 -12 50 -40 60 -6 2 -10 21 -11
43 -1 21 -11 59 -24 82 -12 24 -20 46 -18 49 3 2 30 -21 60 -51 30 -31 62 -56
71 -56 9 0 31 -15 49 -34 38 -40 72 -58 152 -81 33 -10 71 -25 85 -35 48 -34
105 -52 165 -52 42 0 67 -6 86 -19 14 -10 29 -16 32 -13 3 4 95 8 204 9 196 3
246 8 271 28 35 27 53 -78 38 -210 l-7 -51 38 8 c92 21 213 232 213 371 0 38
8 46 60 56 14 2 32 11 41 19 8 8 20 14 26 14 6 0 18 11 26 24 9 13 33 32 54
42 21 11 44 31 51 46 l12 26 58 -17 c62 -19 108 -42 161 -80 l34 -25 -7 30
c-9 36 -53 125 -89 181 -32 51 -33 52 -6 97 12 20 18 36 15 36 -9 0 21 56 58
110 17 25 32 56 34 70 1 14 12 38 23 53 11 15 22 48 24 73 2 25 8 51 14 57 11
14 18 181 9 214 -4 14 -1 28 8 37 18 18 18 72 0 122 -7 22 -11 50 -9 64 2 13
-3 41 -12 62 -8 21 -15 55 -15 76 0 52 -34 134 -80 196 -21 28 -51 77 -65 108
-14 31 -40 67 -58 81 -21 15 -33 34 -35 52 -1 15 -12 39 -24 55 -28 34 -108
90 -129 90 -9 0 -21 10 -28 23 -16 30 -62 69 -146 124 -55 37 -83 48 -130 54
-33 4 -87 20 -120 35 -48 21 -142 52 -210 68 -57 14 -66 19 -60 35 24 57 44
125 40 131 -3 4 -7 71 -9 149 -4 134 -6 145 -37 209 -17 37 -32 86 -34 108 -1
24 -10 52 -23 68 -11 15 -23 41 -27 59 -14 72 -39 130 -65 155 -15 15 -48 77
-74 137 -26 61 -58 119 -71 130 -25 21 -85 128 -85 151 0 7 -16 25 -35 39 -18
15 -47 50 -64 78 -16 29 -42 66 -58 82 -38 41 -73 86 -73 96 0 15 96 -12 145
-42 16 -11 48 -19 70 -19 22 0 55 -9 73 -20 25 -16 44 -19 72 -15 27 4 61 -2
112 -18 88 -29 213 -41 406 -40 109 1 150 6 175 18 22 11 44 14 70 9 43 -7
119 10 157 36 14 9 32 20 40 23 8 4 55 30 105 59 72 43 94 61 108 91 10 21 31
46 47 55 32 18 39 30 47 77 2 17 17 43 31 58 21 22 27 40 29 77 1 28 9 60 18
73 21 33 28 177 11 228 -21 59 -93 164 -124 180 -15 7 -72 44 -128 81 -91 62
-108 70 -184 83 -55 10 -91 22 -105 35 -14 13 -36 21 -61 21 -21 1 -67 12
-100 25 -75 29 -101 33 -136 23 -18 -5 -61 0 -120 13 -52 11 -137 21 -193 23
-55 1 -118 7 -140 14 -34 11 -47 11 -76 -2 -19 -7 -45 -12 -59 -9 -14 3 -45 4
-70 4 -25 -1 -139 -3 -255 -5 -144 -2 -217 -7 -233 -15 -13 -8 -40 -11 -65 -8
-32 4 -52 -1 -82 -18 -47 -26 -68 -27 -73 -3 -3 12 7 22 33 32 26 12 37 23 42
45 3 17 9 30 14 30 11 0 23 40 20 66 -1 12 12 43 28 70 17 27 36 70 42 95 11
42 11 49 -8 73 -12 14 -19 34 -16 44 2 10 -6 27 -21 42 -51 47 -167 28 -188
-32 -6 -15 -17 -28 -26 -29 -10 0 -25 -2 -34 -4 -19 -3 -67 -54 -68 -71 0 -6
-11 -21 -25 -34 -16 -15 -25 -34 -25 -53 0 -44 -102 -157 -141 -157 -17 0 -29
-5 -29 -13 0 -12 -23 -40 -52 -62 -7 -5 -20 -16 -29 -23 -14 -10 -21 -4 -51
45 -20 32 -38 74 -42 94 -3 20 -15 44 -25 53 -11 10 -37 47 -58 84 -21 36 -63
93 -94 126 -31 34 -85 104 -119 156 -35 52 -85 119 -112 148 -26 30 -48 58
-48 63 0 9 -121 163 -149 189 -9 8 -27 32 -41 52 -14 21 -31 38 -37 38 -14 0
-113 95 -113 108 0 13 -31 45 -68 71 -18 12 -39 36 -48 53 -8 16 -29 35 -46
42 -16 7 -62 44 -102 82 -78 75 -228 187 -267 199 -13 4 -43 21 -67 37 -56 39
-121 68 -153 68 -14 0 -40 11 -59 25 -19 14 -53 30 -75 36 -46 13 -309 18
-350 7z m1945 -2708 c27 -82 33 -110 45 -195 10 -72 27 -150 36 -167 5 -10 16
-55 24 -102 8 -46 26 -120 40 -164 14 -44 27 -94 29 -112 2 -17 13 -45 25 -60
24 -33 47 -98 54 -150 2 -19 16 -57 31 -84 14 -27 26 -61 26 -75 0 -14 14 -41
30 -60 17 -18 30 -36 31 -40 4 -37 47 -152 63 -170 7 -9 30 -47 51 -86 21 -38
50 -83 65 -100 15 -16 44 -57 66 -89 21 -33 58 -73 82 -90 24 -17 52 -47 63
-67 21 -43 80 -84 184 -130 79 -34 93 -53 48 -62 -32 -7 -183 -133 -183 -152
0 -7 -27 -41 -60 -76 -33 -35 -65 -77 -72 -94 -6 -16 -24 -48 -39 -70 -15 -22
-34 -58 -43 -79 -9 -22 -25 -46 -36 -53 -13 -9 -20 -26 -20 -46 0 -17 -12 -48
-27 -71 -26 -36 -28 -48 -31 -145 -7 -306 -6 -357 9 -408 9 -29 13 -53 9 -53
-15 0 -17 -49 -4 -80 8 -17 16 -46 18 -63 7 -49 50 -145 80 -176 14 -15 26
-36 26 -47 0 -16 -4 -14 -28 12 -15 18 -63 49 -107 70 -43 20 -96 55 -117 76
-22 23 -47 38 -61 38 -13 0 -34 11 -47 24 -12 14 -37 28 -54 32 -17 3 -44 13
-60 21 -30 15 -39 18 -120 28 -27 3 -58 11 -68 16 -20 11 -51 12 -198 5 -81
-3 -84 -3 -60 13 38 24 64 56 87 103 36 74 53 128 48 151 -2 12 -6 82 -9 154
-5 123 -7 138 -37 200 -17 38 -33 87 -34 110 -2 23 -12 55 -24 71 -11 16 -25
49 -30 73 -15 67 -36 111 -70 147 -17 17 -31 36 -31 41 0 6 -18 49 -40 96 -22
47 -40 90 -40 94 0 5 -11 16 -24 24 -22 15 -86 130 -86 155 0 7 -15 22 -34 34
-19 13 -42 38 -51 58 -17 35 -64 98 -101 137 -12 11 -61 78 -109 147 -49 70
-100 134 -115 143 -15 8 -38 33 -51 55 -14 23 -38 45 -59 54 -19 8 -47 30 -63
49 -15 19 -43 42 -62 51 -37 17 -138 99 -248 200 -37 34 -86 71 -110 82 -23
11 -53 30 -67 42 -14 12 -51 42 -82 67 -74 57 -76 81 -4 53 21 -8 27 -6 36 10
6 12 30 25 55 31 25 6 48 15 51 20 3 5 23 9 44 9 45 0 89 15 104 35 13 16 85
37 98 28 11 -6 98 36 98 48 0 4 20 7 44 6 33 -2 53 5 81 25 26 18 45 25 65 21
23 -3 33 2 46 21 9 15 25 26 36 26 10 0 36 9 58 20 22 11 44 20 51 20 6 0 22
11 35 25 13 14 34 25 46 25 14 0 35 13 50 30 17 20 39 32 67 36 31 5 50 16 74
44 43 50 172 120 210 113 24 -5 29 -1 38 26 10 29 14 31 44 25 28 -5 38 -1 67
26 39 38 80 61 121 67 17 3 42 19 60 40 28 31 32 34 35 17 2 -10 16 -57 32
-104z m-2016 -1042 c-2 -10 -6 -28 -9 -40 -2 -12 0 -40 6 -63 7 -22 13 -59 14
-82 4 -57 16 -124 25 -143 19 -35 39 -99 45 -145 4 -28 9 -57 10 -65 2 -8 6
-35 10 -60 3 -25 15 -74 25 -110 10 -36 26 -102 35 -148 9 -46 27 -117 41
-158 13 -42 22 -79 19 -84 -2 -4 6 -23 19 -42 28 -42 53 -109 61 -162 3 -22
14 -53 25 -71 10 -17 22 -50 26 -73 4 -23 18 -54 34 -72 15 -17 37 -62 49
-103 12 -40 28 -83 36 -94 8 -12 38 -60 65 -108 28 -48 62 -96 75 -107 14 -11
25 -24 25 -29 0 -11 33 -60 65 -98 11 -13 37 -34 57 -47 20 -13 39 -34 43 -46
9 -31 70 -85 120 -108 22 -9 78 -35 125 -57 47 -22 97 -43 113 -47 26 -6 27
-7 11 -31 -8 -13 -29 -27 -45 -30 -17 -4 -41 -21 -55 -41 -31 -40 -37 -41 -68
-11 -13 12 -50 47 -82 78 -75 71 -138 140 -239 258 -203 239 -382 465 -630
796 -257 344 -256 341 -246 390 5 22 24 126 44 230 20 105 39 204 42 220 3 17
14 77 25 135 10 58 21 114 23 125 3 11 15 79 28 152 13 73 26 127 30 121 4 -6
5 -20 3 -30z"/>
</g>
</svg>
